<svg xmlns="http://www.w3.org/2000/svg" viewBox="0 0 512 512" width="512" height="512">
  <defs>
    <clipPath id="circle">
      <circle cx="256" cy="256" r="248"/>
    </clipPath>
    <radialGradient id="bg" cx="50%" cy="50%" r="50%">
      <stop offset="0%" style="stop-color:#2d6a4f"/>
      <stop offset="100%" style="stop-color:#1b4332"/>
    </radialGradient>
  </defs>

  <!-- 背景円 -->
  <circle cx="256" cy="256" r="256" fill="#1b4332"/>
  <circle cx="256" cy="256" r="248" fill="url(#bg)"/>

  <g clip-path="url(#circle)">

    <!-- ===== 上段 ===== -->

    <!-- 🍎 りんご（左上） -->
    <ellipse cx="90" cy="95" rx="42" ry="44" fill="#e63946"/>
    <ellipse cx="72" cy="80" rx="18" ry="16" fill="#c1121f"/>
    <rect x="87" y="50" width="7" height="22" rx="3" fill="#5d3a1a"/>
    <ellipse cx="102" cy="58" rx="14" ry="10" fill="#52b788" transform="rotate(-20,102,58)"/>
    <ellipse cx="85" cy="110" rx="12" ry="8" fill="#ff6b8a" opacity="0.5"/>

    <!-- 🍊 みかん（上中左） -->
    <circle cx="185" cy="75" r="40" fill="#f4a261"/>
    <ellipse cx="168" cy="62" rx="16" ry="12" fill="#e76f51"/>
    <rect x="182" y="34" width="7" height="18" rx="3" fill="#5d3a1a"/>
    <ellipse cx="196" cy="42" rx="12" ry="8" fill="#52b788" transform="rotate(-15,196,42)"/>
    <ellipse cx="178" cy="88" rx="11" ry="7" fill="#ffd166" opacity="0.6"/>

    <!-- 🍋 レモン（上中） -->
    <ellipse cx="270" cy="68" rx="34" ry="26" fill="#ffd166"/>
    <ellipse cx="255" cy="58" rx="14" ry="10" fill="#ffb700"/>
    <ellipse cx="300" cy="68" rx="8" ry="14" fill="#ffd166"/>
    <ellipse cx="240" cy="68" rx="8" ry="14" fill="#ffd166"/>
    <rect x="267" y="38" width="6" height="14" rx="3" fill="#5d3a1a"/>

    <!-- 🍇 ぶどう（上中右） -->
    <circle cx="355" cy="100" r="16" fill="#6a0dad"/>
    <circle cx="380" cy="95" r="16" fill="#7b2d8b"/>
    <circle cx="367" cy="120" r="16" fill="#6a0dad"/>
    <circle cx="343" cy="118" r="16" fill="#7b2d8b"/>
    <circle cx="391" cy="118" r="16" fill="#6a0dad"/>
    <circle cx="367" cy="142" r="16" fill="#7b2d8b"/>
    <rect x="364" y="72" width="6" height="18" rx="3" fill="#5d3a1a"/>
    <ellipse cx="356" cy="78" rx="16" ry="8" fill="#52b788" transform="rotate(-20,356,78)"/>

    <!-- 🍑 もも（右上） -->
    <circle cx="440" cy="90" r="42" fill="#ffb4a2"/>
    <ellipse cx="420" cy="75" rx="18" ry="14" fill="#ff8fa3"/>
    <rect x="437" y="46" width="7" height="20" rx="3" fill="#5d3a1a"/>
    <ellipse cx="451" cy="54" rx="13" ry="9" fill="#52b788" transform="rotate(-10,451,54)"/>
    <line x1="440" y1="50" x2="440" y2="120" stroke="#e5989b" stroke-width="2" opacity="0.5"/>

    <!-- ===== 中上段 ===== -->

    <!-- 🥕 にんじん（左） -->
    <ellipse cx="68" cy="195" rx="20" ry="48" fill="#f4a261" transform="rotate(-10,68,195)"/>
    <ellipse cx="56" cy="165" rx="10" ry="20" fill="#e76f51" transform="rotate(-10,56,165)"/>
    <line x1="62" y1="150" x2="50" y2="125" stroke="#52b788" stroke-width="5" stroke-linecap="round"/>
    <line x1="68" y1="148" x2="68" y2="120" stroke="#52b788" stroke-width="5" stroke-linecap="round"/>
    <line x1="74" y1="150" x2="86" y2="126" stroke="#52b788" stroke-width="5" stroke-linecap="round"/>

    <!-- 🌽 とうもろこし（中左） -->
    <ellipse cx="168" cy="188" rx="26" ry="52" fill="#ffd166"/>
    <ellipse cx="150" cy="165" rx="12" ry="30" fill="#ffb700"/>
    <circle cx="158" cy="165" r="5" fill="#f4a261"/>
    <circle cx="168" cy="160" r="5" fill="#f4a261"/>
    <circle cx="178" cy="165" r="5" fill="#f4a261"/>
    <circle cx="158" cy="178" r="5" fill="#f4a261"/>
    <circle cx="168" cy="173" r="5" fill="#f4a261"/>
    <circle cx="178" cy="178" r="5" fill="#f4a261"/>
    <circle cx="158" cy="191" r="5" fill="#f4a261"/>
    <circle cx="168" cy="186" r="5" fill="#f4a261"/>
    <circle cx="178" cy="191" r="5" fill="#f4a261"/>
    <ellipse cx="148" cy="152" rx="24" ry="10" fill="#52b788" transform="rotate(-40,148,152)"/>
    <ellipse cx="190" cy="150" rx="24" ry="10" fill="#40916c" transform="rotate(40,190,150)"/>

    <!-- 🍅 トマト（中央上） -->
    <circle cx="256" cy="185" r="46" fill="#e63946"/>
    <ellipse cx="235" cy="162" rx="20" ry="15" fill="#c1121f"/>
    <line x1="256" y1="138" x2="250" y2="118" stroke="#52b788" stroke-width="5" stroke-linecap="round"/>
    <line x1="256" y1="138" x2="262" y2="118" stroke="#52b788" stroke-width="5" stroke-linecap="round"/>
    <line x1="256" y1="138" x2="270" y2="125" stroke="#52b788" stroke-width="5" stroke-linecap="round"/>
    <line x1="256" y1="138" x2="242" y2="125" stroke="#52b788" stroke-width="5" stroke-linecap="round"/>
    <ellipse cx="245" cy="195" rx="14" ry="9" fill="#ff6b8a" opacity="0.4"/>

    <!-- 🍆 なす（中右） -->
    <ellipse cx="344" cy="192" rx="24" ry="50" fill="#6a0dad" transform="rotate(10,344,192)"/>
    <ellipse cx="332" cy="168" rx="12" ry="22" fill="#560bad" transform="rotate(10,332,168)"/>
    <rect x="348" y="138" width="8" height="22" rx="4" fill="#5d3a1a" transform="rotate(10,348,138)"/>
    <ellipse cx="338" cy="142" rx="18" ry="8" fill="#52b788" transform="rotate(-20,338,142)"/>

    <!-- 🥦 ブロッコリー（右） -->
    <rect x="422" y="210" width="10" height="50" rx="5" fill="#5d3a1a"/>
    <circle cx="427" cy="185" r="30" fill="#52b788"/>
    <circle cx="407" cy="195" r="22" fill="#40916c"/>
    <circle cx="447" cy="192" r="22" fill="#2d6a4f"/>
    <circle cx="427" cy="165" r="18" fill="#52b788"/>
    <circle cx="412" cy="175" r="14" fill="#40916c"/>
    <circle cx="442" cy="172" r="14" fill="#52b788"/>

    <!-- ===== 中段 ===== -->

    <!-- 🧅 たまねぎ（左） -->
    <ellipse cx="75" cy="295" rx="36" ry="40" fill="#ffd166"/>
    <ellipse cx="60" cy="278" rx="16" ry="14" fill="#ffb700"/>
    <rect x="72" y="252" width="7" height="22" rx="3" fill="#5d3a1a"/>
    <ellipse cx="75" cy="295" rx="28" ry="32" fill="none" stroke="#f4a261" stroke-width="2"/>
    <ellipse cx="75" cy="295" rx="18" ry="22" fill="none" stroke="#f4a261" stroke-width="2"/>

    <!-- 🥬 白菜（中左） -->
    <ellipse cx="170" cy="300" rx="30" ry="45" fill="#95d5b2"/>
    <ellipse cx="156" cy="278" rx="14" ry="24" fill="#52b788"/>
    <ellipse cx="184" cy="280" rx="14" ry="22" fill="#40916c"/>
    <line x1="170" y1="258" x2="170" y2="340" stroke="#1b4332" stroke-width="2" opacity="0.4"/>
    <line x1="150" y1="290" x2="190" y2="290" stroke="#1b4332" stroke-width="1.5" opacity="0.3"/>
    <line x1="152" y1="310" x2="188" y2="310" stroke="#1b4332" stroke-width="1.5" opacity="0.3"/>

    <!-- 🍓 いちご（中央） -->
    <ellipse cx="256" cy="290" rx="36" ry="40" fill="#e63946"/>
    <ellipse cx="238" cy="272" rx="16" ry="14" fill="#c1121f"/>
    <ellipse cx="245" cy="282" rx="2.5" ry="3" fill="#ffd166"/>
    <ellipse cx="260" cy="278" rx="2.5" ry="3" fill="#ffd166"/>
    <ellipse cx="272" cy="286" rx="2.5" ry="3" fill="#ffd166"/>
    <ellipse cx="248" cy="298" rx="2.5" ry="3" fill="#ffd166"/>
    <ellipse cx="264" cy="296" rx="2.5" ry="3" fill="#ffd166"/>
    <ellipse cx="252" cy="312" rx="2.5" ry="3" fill="#ffd166"/>
    <line x1="256" y1="250" x2="248" y2="232" stroke="#52b788" stroke-width="5" stroke-linecap="round"/>
    <line x1="256" y1="250" x2="256" y2="230" stroke="#52b788" stroke-width="5" stroke-linecap="round"/>
    <line x1="256" y1="250" x2="264" y2="232" stroke="#52b788" stroke-width="5" stroke-linecap="round"/>
    <line x1="256" y1="250" x2="270" y2="244" stroke="#52b788" stroke-width="5" stroke-linecap="round"/>
    <line x1="256" y1="250" x2="242" y2="244" stroke="#52b788" stroke-width="5" stroke-linecap="round"/>

    <!-- 🫑 ピーマン（中右） -->
    <ellipse cx="342" cy="295" rx="28" ry="40" fill="#52b788"/>
    <ellipse cx="328" cy="272" rx="13" ry="20" fill="#40916c"/>
    <ellipse cx="356" cy="275" rx="13" ry="18" fill="#2d6a4f"/>
    <rect x="339" y="253" width="7" height="18" rx="3" fill="#5d3a1a"/>

    <!-- 🌰 栗（右） -->
    <ellipse cx="435" cy="295" rx="34" ry="38" fill="#8B4513"/>
    <ellipse cx="418" cy="276" rx="16" ry="14" fill="#6B3410"/>
    <line x1="435" y1="256" x2="425" y2="240" stroke="#5d3a1a" stroke-width="3"/>
    <line x1="435" y1="256" x2="435" y2="238" stroke="#5d3a1a" stroke-width="3"/>
    <line x1="435" y1="256" x2="445" y2="240" stroke="#5d3a1a" stroke-width="3"/>

    <!-- ===== 下段 ===== -->

    <!-- さやいんげん（左） -->
    <ellipse cx="100" cy="400" rx="14" ry="48" fill="#52b788" transform="rotate(-20,100,400)"/>
    <ellipse cx="88" cy="378" rx="7" ry="22" fill="#40916c" transform="rotate(-20,88,378)"/>
    <circle cx="108" cy="385" r="8" fill="#40916c" opacity="0.5"/>
    <circle cx="100" cy="402" r="8" fill="#40916c" opacity="0.5"/>
    <circle cx="92" cy="418" r="8" fill="#40916c" opacity="0.5"/>

    <!-- 🍠 さつまいも（中左） -->
    <ellipse cx="195" cy="408" rx="22" ry="44" fill="#c77dff" transform="rotate(-15,195,408)"/>
    <ellipse cx="178" cy="385" rx="11" ry="20" fill="#9d4edd" transform="rotate(-15,178,385)"/>
    <line x1="190" y1="365" x2="182" y2="348" stroke="#52b788" stroke-width="4" stroke-linecap="round"/>
    <line x1="196" y1="363" x2="196" y2="345" stroke="#52b788" stroke-width="4" stroke-linecap="round"/>

    <!-- 大根（中央下） -->
    <ellipse cx="256" cy="415" rx="22" ry="52" fill="#f8f9fa"/>
    <ellipse cx="240" cy="390" rx="10" ry="24" fill="#e9ecef"/>
    <line x1="256" y1="363" x2="248" y2="345" stroke="#52b788" stroke-width="5" stroke-linecap="round"/>
    <line x1="256" y1="363" x2="256" y2="343" stroke="#52b788" stroke-width="5" stroke-linecap="round"/>
    <line x1="256" y1="363" x2="264" y2="345" stroke="#52b788" stroke-width="5" stroke-linecap="round"/>
    <line x1="268" y1="450" x2="272" y2="465" stroke="#dee2e6" stroke-width="3" stroke-linecap="round"/>

    <!-- 🫐 ブルーベリー（中右下） -->
    <circle cx="320" cy="395" r="18" fill="#4361ee"/>
    <circle cx="348" cy="388" r="18" fill="#3a0ca3"/>
    <circle cx="338" cy="415" r="18" fill="#4361ee"/>
    <circle cx="312" cy="418" r="18" fill="#3a0ca3"/>
    <circle cx="360" cy="412" r="18" fill="#4361ee"/>

    <!-- 🥝 キウイ（右下） -->
    <ellipse cx="420" cy="405" rx="38" ry="44" fill="#6B6B00"/>
    <ellipse cx="403" cy="385" rx="18" ry="20" fill="#5a5a00"/>
    <ellipse cx="420" cy="405" rx="28" ry="33" fill="#95d5b2"/>
    <ellipse cx="420" cy="405" rx="18" ry="22" fill="#52b788"/>
    <ellipse cx="420" cy="390" rx="3" ry="4" fill="#1b4332"/>
    <ellipse cx="408" cy="398" rx="3" ry="4" fill="#1b4332" transform="rotate(-30,408,398)"/>
    <ellipse cx="432" cy="398" rx="3" ry="4" fill="#1b4332" transform="rotate(30,432,398)"/>
    <ellipse cx="410" cy="415" rx="3" ry="4" fill="#1b4332" transform="rotate(-20,410,415)"/>
    <ellipse cx="430" cy="415" rx="3" ry="4" fill="#1b4332" transform="rotate(20,430,415)"/>
    <ellipse cx="420" cy="422" rx="3" ry="4" fill="#1b4332"/>

  </g>

  <!-- 中央テキスト背景 -->
  <ellipse cx="256" cy="265" rx="155" ry="72" fill="#1b4332" opacity="0.75"/>

  <!-- 中央テキスト -->
  <text x="256" y="240" font-family="serif" font-size="28" font-weight="bold" fill="white" text-anchor="middle">協生農法</text>
  <text x="256" y="272" font-family="serif" font-size="28" font-weight="bold" fill="white" text-anchor="middle">作物の森</text>
  <text x="256" y="308" font-family="serif" font-size="18" fill="#95d5b2" text-anchor="middle">飯綱町上村</text>

  <!-- 縁取り -->
  <circle cx="256" cy="256" r="248" fill="none" stroke="#95d5b2" stroke-width="8"/>
</svg>
